HIERARCHY
ROOT Hips
{
	OFFSET 0.00000 0.00000 0.00000
	CHANNELS 6 Xposition Yposition Zposition Zrotation Yrotation Xrotation 
	JOINT LHipJoint
	{
		OFFSET 0 0 0
		CHANNELS 3 Zrotation Yrotation Xrotation
		JOINT LeftUpLeg
		{
			OFFSET 1.66553 -1.82942 0.76350
			CHANNELS 3 Zrotation Yrotation Xrotation
			JOINT LeftLeg
			{
				OFFSET 2.41740 -6.64177 0.00000
				CHANNELS 3 Zrotation Yrotation Xrotation
				JOINT LeftFoot
				{
					OFFSET 2.71614 -7.46254 0.00000
					CHANNELS 3 Zrotation Yrotation Xrotation
					JOINT LeftToeBase
					{
						OFFSET 0.08005 -0.21993 1.82495
						CHANNELS 3 Zrotation Yrotation Xrotation
						End Site
						{
							OFFSET 0.00000 -0.00000 0.93441
						}
					}
				}
			}
		}
	}
	JOINT RHipJoint
	{
		OFFSET 0 0 0
		CHANNELS 3 Zrotation Yrotation Xrotation
		JOINT RightUpLeg
		{
			OFFSET -1.63725 -1.82942 0.76350
			CHANNELS 3 Zrotation Yrotation Xrotation
			JOINT RightLeg
			{
				OFFSET -2.40538 -6.60872 0.00000
				CHANNELS 3 Zrotation Yrotation Xrotation
				JOINT RightFoot
				{
					OFFSET -2.73312 -7.50919 0.00000
					CHANNELS 3 Zrotation Yrotation Xrotation
					JOINT RightToeBase
					{
						OFFSET -0.15567 -0.42769 1.93504
						CHANNELS 3 Zrotation Yrotation Xrotation
						End Site
						{
							OFFSET -0.00000 -0.00000 1.00100
						}
					}
				}
			}
		}
	}
	JOINT LowerBack
	{
		OFFSET 0 0 0
		CHANNELS 3 Zrotation Yrotation Xrotation
		JOINT Spine
		{
			OFFSET 0.00326 2.30118 -0.13017
			CHANNELS 3 Zrotation Yrotation Xrotation
			JOINT Spine1
			{
				OFFSET 0.02887 2.30677 0.00834
				CHANNELS 3 Zrotation Yrotation Xrotation
				JOINT Neck
				{
					OFFSET 0 0 0
					CHANNELS 3 Zrotation Yrotation Xrotation
					JOINT Neck1
					{
						OFFSET 0.12946 1.68326 0.00713
						CHANNELS 3 Zrotation Yrotation Xrotation
						JOINT Head
						{
							OFFSET -0.24364 1.67243 -0.16079
							CHANNELS 3 Zrotation Yrotation Xrotation
							End Site
							{
								OFFSET -0.09229 1.70819 -0.06383
							}
						}
					}
				}
				JOINT LeftShoulder
				{
					OFFSET 0 0 0
					CHANNELS 3 Zrotation Yrotation Xrotation
					JOINT LeftArm
					{
						OFFSET 3.28104 0.69567 -0.00556
						CHANNELS 3 Zrotation Yrotation Xrotation
						JOINT LeftForeArm
						{
							OFFSET 5.70706 -0.00000 -0.00000
							CHANNELS 3 Zrotation Yrotation Xrotation
							JOINT LeftHand
							{
								OFFSET 3.33243 -0.00000 0.00000
								CHANNELS 3 Zrotation Yrotation Xrotation
								JOINT LeftFingerBase
								{
									OFFSET 0 0 0
									CHANNELS 3 Zrotation Yrotation Xrotation
									JOINT LeftHandIndex1
									{
										OFFSET 0.79269 -0.00000 0.00000
										CHANNELS 3 Zrotation Yrotation Xrotation
										End Site
										{
											OFFSET 0.63909 -0.00000 0.00000
										}
									}
								}
								JOINT LThumb
								{
									OFFSET 0 0 0
									CHANNELS 3 Zrotation Yrotation Xrotation
									End Site
									{
										OFFSET 0.64884 -0.00000 0.64884
									}
								}
							}
						}
					}
				}
				JOINT RightShoulder
				{
					OFFSET 0 0 0
					CHANNELS 3 Zrotation Yrotation Xrotation
					JOINT RightArm
					{
						OFFSET -3.40955 0.64424 0.14010
						CHANNELS 3 Zrotation Yrotation Xrotation
						JOINT RightForeArm
						{
							OFFSET -5.88176 -0.00000 -0.00000
							CHANNELS 3 Zrotation Yrotation Xrotation
							JOINT RightHand
							{
								OFFSET -3.28156 -0.00000 0.00000
								CHANNELS 3 Zrotation Yrotation Xrotation
								JOINT RightFingerBase
								{
									OFFSET 0 0 0
									CHANNELS 3 Zrotation Yrotation Xrotation
									JOINT RightHandIndex1
									{
										OFFSET -0.86313 -0.00000 0.00000
										CHANNELS 3 Zrotation Yrotation Xrotation
										End Site
										{
											OFFSET -0.69587 -0.00000 0.00000
										}
									}
								}
								JOINT RThumb
								{
									OFFSET 0 0 0
									CHANNELS 3 Zrotation Yrotation Xrotation
									End Site
									{
										OFFSET -0.70650 -0.00000 0.70650
									}
								}
							}
						}
					}
				}
			}
		}
	}
}
MOTION
Frames: 8
Frame Time: .0083333
27.3274 17.2671 -30.7342 0 0 0 0 0 0 -21 0 0 0 0 0 0 0 0 0 0 0 0 0 0 21 0 0 0 0 0 0 0 0 0 0 0 0 0 0 0 0 0 0 0 0 0 0 -16 0 0 21 0 0 11 0 0 0 -8 0 0 0 0 0 0 0 0 0 0 0 0 0 0 0 0 0 0 0 0 8 0 0 0 0 0 0 0 0 0 0 0 0 0 0 0 0 0
27.3274 17.2671 -30.7342 5.9820 -30.6940 34.1895 0.0000 0.0000 0.0000 -12.4462 -19.6553 -59.7281 4.2355 12.4674 37.4061 0.3407 -9.1669 -11.4039 1.9531 -8.7677 -25.0714 0.0000 0.0000 0.0000 -11.0145 21.5148 -57.2230 -5.2838 -13.6964 42.0348 -1.1160 -7.0699 -23.6865 -0.9086 6.0743 -17.0001 1.3279 -1.6876 21.6830 1.5035 -1.7273 0.7042 1.4489 -0.8328 -11.3979 14.5290 5.5200 2.4037 -16.0356 8.7905 12.1614 -7.1352 4.3242 4.5298 -0.0000 -0.0000 0.0000 -82.5149 17.2217 26.8050 38.8308 -47.3617 -17.5742 -0.0000 0.0000 -19.1164 21.5610 26.7361 10.0800 -7.1250 0.0000 -0.0000 -9.6058 58.1631 -3.1122 -0.0000 -0.0000 0.0000 81.1161 -9.9589 16.0093 -30.7489 41.5267 -11.9030 0.0000 -0.0000 -3.7120 -17.6774 16.1013 -5.0512 7.1250 -0.0000 -0.0000 6.7202 -13.2098 5.0423
27.3078 17.2973 -30.6867 5.7374 -30.8812 34.0046 0.0000 0.0000 0.0000 -12.4821 -19.3851 -59.1236 4.2008 12.4230 37.2452 0.2916 -9.2895 -10.8390 1.6947 -8.1990 -23.3200 0.0000 0.0000 0.0000 -10.4902 21.5414 -56.5042 -5.1788 -13.5824 41.5896 -1.1137 -6.7961 -23.4795 -0.8556 5.8989 -16.4913 1.1760 -1.6741 21.2860 1.5013 -1.7552 0.6278 1.5299 -0.8390 -11.2581 14.8152 5.5205 2.0166 -16.2312 8.7571 11.9723 -7.2381 4.3009 4.5548 0.0000 0.0000 0.0000 -82.5065 17.4023 26.4987 36.6767 -45.9729 -16.0071 -0.0000 0.0000 -18.0162 20.6952 27.0430 9.7459 -7.1250 0.0000 -0.0000 -10.7012 58.2794 -3.5022 0.0000 0.0000 0.0000 81.2279 -10.1964 15.5901 -30.0710 40.9542 -11.4561 0.0000 -0.0000 -3.9169 -17.5685 16.0160 -4.9924 7.1250 -0.0000 -0.0000 6.7904 -13.3091 5.0814
27.2896 17.3199 -30.6492 5.5062 -31.0435 34.0298 0.0000 0.0000 0.0000 -12.4033 -19.1817 -58.7999 4.1623 12.3733 37.0657 0.2709 -9.2536 -10.5603 1.6729 -8.1487 -23.1668 0.0000 0.0000 0.0000 -10.0862 21.5472 -56.1358 -5.0928 -13.4875 41.2219 -1.0638 -6.8197 -23.0782 -0.8140 5.7573 -16.0819 0.9392 -1.8405 20.7690 1.6273 -2.0223 0.4034 1.8725 -0.9466 -11.2059 14.4543 5.6732 1.9301 -16.1302 8.9307 11.7685 -7.1251 4.3724 4.5171 -0.0000 -0.0000 0.0000 -82.9912 17.8898 25.4115 34.9500 -44.7764 -14.7781 -0.0000 0.0000 -17.3026 20.3688 27.0025 9.5684 -7.1250 0.0000 -0.0000 -11.0316 58.1658 -3.5818 -0.0000 -0.0000 0.0000 80.9937 -10.4529 15.7890 -29.3908 40.3655 -11.0130 0.0000 -0.0000 -4.0577 -17.6055 15.6606 -4.8959 7.1250 -0.0000 -0.0000 6.7546 -13.6723 5.0023
27.2675 17.3499 -30.6101 5.3299 -31.2372 33.8124 0.0000 0.0000 0.0000 -12.4580 -18.9094 -58.1793 4.1225 12.3216 36.8794 0.2558 -9.0995 -10.3033 1.5467 -7.8502 -22.2599 0.0000 0.0000 0.0000 -9.6298 21.6086 -55.4908 -5.0041 -13.3884 40.8405 -1.0290 -6.7094 -22.7043 -0.7499 5.5311 -15.4298 0.7087 -1.9175 20.5364 1.6929 -2.1714 0.1927 2.1185 -0.9998 -11.2989 14.3883 5.7357 1.9396 -16.2300 9.0060 11.4999 -7.1397 4.4073 4.4484 0.0000 -0.0000 0.0000 -83.2938 18.3249 24.4894 33.4503 -43.6733 -13.7320 -0.0000 0.0000 -16.8410 20.8224 26.8861 9.7585 -7.1250 0.0000 -0.0000 -10.4816 58.1497 -3.3965 0.0000 -0.0000 0.0000 80.9273 -10.7798 15.5665 -28.6675 39.7235 -10.5476 0.0000 -0.0000 -4.0893 -17.5806 15.6937 -4.8986 7.1250 -0.0000 -0.0000 6.7724 -13.6406 5.0201
27.2388 17.3885 -30.5638 5.2160 -31.3016 33.3800 0.0000 0.0000 0.0000 -12.7405 -18.5250 -57.2317 4.0468 12.2225 36.5236 0.2022 -9.2720 -9.6548 1.2311 -7.0366 -19.8239 0.0000 0.0000 0.0000 -9.0840 21.6554 -54.4607 -4.8995 -13.2697 40.3868 -1.0309 -6.4689 -22.5555 -0.6894 5.3080 -14.7890 0.5852 -1.9705 20.3706 1.6750 -2.2729 0.0427 2.1972 -1.0395 -11.3684 14.7190 5.6157 2.0419 -16.5399 8.8563 11.1703 -7.3106 4.3463 4.3349 -0.0000 0.0000 0.0000 -83.1449 18.5982 24.1515 31.8241 -42.4065 -12.6221 -0.0000 0.0000 -16.6793 20.9052 27.1311 9.8811 -7.1250 0.0000 -0.0000 -10.5208 58.4154 -3.4768 -0.0000 0.0000 0.0000 81.1494 -11.1867 14.8665 -28.0539 39.1658 -10.1577 0.0000 -0.0000 -3.9640 -17.3620 15.8226 -4.8726 7.1250 -0.0000 -0.0000 6.9230 -13.5299 5.1498
27.2150 17.4171 -30.5241 4.8702 -31.2452 33.5166 0.0000 0.0000 0.0000 -12.5680 -18.2526 -56.9679 4.0050 12.1671 36.3256 0.1664 -9.4341 -9.2292 1.2391 -7.0586 -19.8892 0.0000 0.0000 0.0000 -8.5267 21.6826 -54.0163 -4.7948 -13.1489 39.9285 -0.9527 -6.7561 -22.0703 -0.7554 5.5509 -15.4867 0.7113 -2.0532 19.7108 1.7103 -2.3572 -0.1799 2.1672 -1.0868 -11.2486 14.9499 5.4629 1.8670 -16.6693 8.6295 11.0186 -7.4020 4.2351 4.2969 0.0000 -0.0000 0.0000 -82.9314 18.7634 24.0135 30.1707 -41.0393 -11.5216 -0.0000 0.0000 -16.5982 20.7884 27.0004 9.7790 -7.1250 0.0000 -0.0000 -10.5780 58.2573 -3.4557 0.0000 -0.0000 0.0000 81.4401 -11.4956 14.0549 -27.5746 38.7216 -9.8564 0.0000 -0.0000 -3.7355 -17.3979 15.6354 -4.8272 7.1250 -0.0000 -0.0000 6.8935 -13.7193 5.0997
27.1756 17.4879 -30.4543 5.0444 -30.5759 31.8128 0.0000 0.0000 0.0000 -13.2050 -18.1723 -54.5114 3.9442 12.0858 36.0363 0.1688 -9.6943 -9.3902 1.5451 -7.8463 -22.2481 0.0000 0.0000 0.0000 -7.2961 21.4318 -51.1742 -4.6764 -13.0099 39.4054 -0.9035 -7.3043 -22.0313 -0.8517 5.8858 -16.4536 0.9141 -2.4956 20.8674 1.7438 -2.8641 -0.0643 2.2926 -1.3233 -11.7659 14.9425 5.4355 1.5965 -16.6862 8.5611 10.9621 -7.4021 4.1900 4.3154 -0.0000 0.0000 0.0000 -83.0614 19.1222 23.3637 28.9526 -39.9786 -10.7303 -0.0000 0.0000 -16.3737 20.5889 27.1560 9.7290 -7.1250 0.0000 -0.0000 -10.8762 58.3693 -3.5839 -0.0000 0.0000 0.0000 81.5048 -11.8030 13.6617 -27.1501 38.3220 -9.5921 0.0000 -0.0000 -3.7431 -17.6427 15.5914 -4.8858 7.1250 -0.0000 -0.0000 6.7276 -13.7399 4.9723
